<mxfile host="drawio-plugin" modified="2022-03-30T12:18:45.584Z" agent="5.0 (X11; Linux x86_64) AppleWebKit/537.36 (KHTML, like Gecko) Chrome/89.0.4389.114 Safari/537.36" etag="eJjDE1XyGylNcrDqHFY3" version="15.5.4" type="embed"><diagram id="PyPTIPz7Oc-x6869J-TI" name="Page-1"><mxGraphModel dx="1073" dy="615" grid="1" gridSize="10" guides="1" tooltips="1" connect="1" arrows="1" fold="1" page="1" pageScale="1" pageWidth="827" pageHeight="1169" math="0" shadow="0"><root><mxCell id="0"/><mxCell id="1" parent="0"/><mxCell id="MFGf02-coOZ1D1lEETmh-1" value="User" style="shape=umlActor;verticalLabelPosition=bottom;verticalAlign=top;html=1;outlineConnect=0;" parent="1" vertex="1"><mxGeometry x="30" y="170" width="30" height="60" as="geometry"/></mxCell><mxCell id="27" style="edgeStyle=orthogonalEdgeStyle;rounded=0;orthogonalLoop=1;jettySize=auto;html=1;entryX=0.5;entryY=0;entryDx=0;entryDy=0;entryPerimeter=0;" edge="1" parent="1" source="B4jQxPsFh91deIZ0dAR_-1" target="24"><mxGeometry relative="1" as="geometry"><mxPoint x="630" y="275" as="targetPoint"/></mxGeometry></mxCell><mxCell id="B4jQxPsFh91deIZ0dAR_-1" value="Admin" style="shape=umlActor;verticalLabelPosition=bottom;verticalAlign=top;html=1;outlineConnect=0;" parent="1" vertex="1"><mxGeometry x="610" y="355" width="40" height="70" as="geometry"/></mxCell><mxCell id="B4jQxPsFh91deIZ0dAR_-4" value="Consulte les produits" style="ellipse;whiteSpace=wrap;html=1;" parent="1" vertex="1"><mxGeometry x="185" width="120" height="60" as="geometry"/></mxCell><mxCell id="B4jQxPsFh91deIZ0dAR_-6" value="Ajoute des produits au panier" style="ellipse;whiteSpace=wrap;html=1;" parent="1" vertex="1"><mxGeometry x="170" y="100" width="140" height="60" as="geometry"/></mxCell><mxCell id="B4jQxPsFh91deIZ0dAR_-8" value="Valide le panier" style="ellipse;whiteSpace=wrap;html=1;" parent="1" vertex="1"><mxGeometry x="175" y="220" width="130" height="60" as="geometry"/></mxCell><mxCell id="B4jQxPsFh91deIZ0dAR_-9" value="Controle ses commandes" style="ellipse;whiteSpace=wrap;html=1;" parent="1" vertex="1"><mxGeometry x="175" y="560" width="130" height="60" as="geometry"/></mxCell><mxCell id="B4jQxPsFh91deIZ0dAR_-11" value="Regarder, imprimer la facture en PDF" style="ellipse;whiteSpace=wrap;html=1;" parent="1" vertex="1"><mxGeometry x="175" y="660" width="130" height="70" as="geometry"/></mxCell><mxCell id="B4jQxPsFh91deIZ0dAR_-13" value="" style="endArrow=classic;html=1;rounded=0;exitX=0.5;exitY=0.5;exitDx=0;exitDy=0;exitPerimeter=0;entryX=0.008;entryY=0.68;entryDx=0;entryDy=0;entryPerimeter=0;" parent="1" source="MFGf02-coOZ1D1lEETmh-1" target="B4jQxPsFh91deIZ0dAR_-4" edge="1"><mxGeometry width="50" height="50" relative="1" as="geometry"><mxPoint x="390" y="270" as="sourcePoint"/><mxPoint x="440" y="220" as="targetPoint"/><Array as="points"><mxPoint x="110" y="200"/><mxPoint x="110" y="130"/><mxPoint x="110" y="41"/></Array></mxGeometry></mxCell><mxCell id="B4jQxPsFh91deIZ0dAR_-17" value="" style="endArrow=classic;html=1;rounded=0;entryX=0.5;entryY=0;entryDx=0;entryDy=0;exitX=0.5;exitY=1;exitDx=0;exitDy=0;" parent="1" source="B4jQxPsFh91deIZ0dAR_-9" target="B4jQxPsFh91deIZ0dAR_-11" edge="1"><mxGeometry width="50" height="50" relative="1" as="geometry"><mxPoint x="240" y="680" as="sourcePoint"/><mxPoint x="440" y="290" as="targetPoint"/></mxGeometry></mxCell><mxCell id="B4jQxPsFh91deIZ0dAR_-18" value="" style="endArrow=classic;html=1;rounded=0;exitX=0.5;exitY=1;exitDx=0;exitDy=0;entryX=0;entryY=0.5;entryDx=0;entryDy=0;" parent="1" edge="1" target="15"><mxGeometry width="50" height="50" relative="1" as="geometry"><mxPoint x="90" y="430" as="sourcePoint"/><mxPoint x="150" y="540" as="targetPoint"/><Array as="points"><mxPoint x="90" y="480"/></Array></mxGeometry></mxCell><mxCell id="B4jQxPsFh91deIZ0dAR_-19" value="" style="endArrow=classic;html=1;rounded=0;exitX=0.5;exitY=1;exitDx=0;exitDy=0;entryX=0.5;entryY=0;entryDx=0;entryDy=0;" parent="1" source="B4jQxPsFh91deIZ0dAR_-6" target="B4jQxPsFh91deIZ0dAR_-8" edge="1"><mxGeometry width="50" height="50" relative="1" as="geometry"><mxPoint x="80" y="220" as="sourcePoint"/><mxPoint x="440" y="220" as="targetPoint"/></mxGeometry></mxCell><mxCell id="B4jQxPsFh91deIZ0dAR_-20" value="" style="endArrow=classic;html=1;rounded=0;exitX=0.45;exitY=1.04;exitDx=0;exitDy=0;exitPerimeter=0;entryX=0.5;entryY=0;entryDx=0;entryDy=0;" parent="1" source="B4jQxPsFh91deIZ0dAR_-4" target="B4jQxPsFh91deIZ0dAR_-6" edge="1"><mxGeometry width="50" height="50" relative="1" as="geometry"><mxPoint x="390" y="270" as="sourcePoint"/><mxPoint x="200" y="210" as="targetPoint"/></mxGeometry></mxCell><mxCell id="5" value="" style="endArrow=classic;html=1;rounded=0;exitX=1;exitY=0.5;exitDx=0;exitDy=0;entryX=1;entryY=0.5;entryDx=0;entryDy=0;" edge="1" parent="1" source="B4jQxPsFh91deIZ0dAR_-6" target="B4jQxPsFh91deIZ0dAR_-4"><mxGeometry relative="1" as="geometry"><mxPoint x="330" y="130" as="sourcePoint"/><mxPoint x="330" y="20" as="targetPoint"/><Array as="points"><mxPoint x="340" y="130"/><mxPoint x="340" y="30"/></Array></mxGeometry></mxCell><mxCell id="6" value="tache répeté" style="edgeLabel;resizable=0;html=1;align=center;verticalAlign=middle;" connectable="0" vertex="1" parent="5"><mxGeometry relative="1" as="geometry"/></mxCell><mxCell id="9" value="Connexion" style="ellipse;whiteSpace=wrap;html=1;" vertex="1" parent="1"><mxGeometry x="320" y="350" width="120" height="80" as="geometry"/></mxCell><mxCell id="10" value="Inscription" style="ellipse;whiteSpace=wrap;html=1;" vertex="1" parent="1"><mxGeometry x="30" y="350" width="120" height="80" as="geometry"/></mxCell><mxCell id="13" value="" style="endArrow=classic;html=1;rounded=0;exitX=0.5;exitY=1;exitDx=0;exitDy=0;entryX=1;entryY=0.5;entryDx=0;entryDy=0;" edge="1" parent="1" target="15"><mxGeometry width="50" height="50" relative="1" as="geometry"><mxPoint x="380" y="430" as="sourcePoint"/><mxPoint x="330" y="540" as="targetPoint"/><Array as="points"><mxPoint x="380" y="480"/></Array></mxGeometry></mxCell><mxCell id="15" value="Valide info de livraison" style="ellipse;whiteSpace=wrap;html=1;" vertex="1" parent="1"><mxGeometry x="180" y="440" width="120" height="80" as="geometry"/></mxCell><mxCell id="17" value="" style="endArrow=classic;html=1;rounded=0;entryX=0.5;entryY=0;entryDx=0;entryDy=0;exitX=0.5;exitY=1;exitDx=0;exitDy=0;" edge="1" parent="1" source="15" target="B4jQxPsFh91deIZ0dAR_-9"><mxGeometry width="50" height="50" relative="1" as="geometry"><mxPoint x="390" y="530" as="sourcePoint"/><mxPoint x="440" y="480" as="targetPoint"/></mxGeometry></mxCell><mxCell id="18" value="" style="endArrow=classic;html=1;rounded=0;exitX=0.5;exitY=1;exitDx=0;exitDy=0;entryX=0.5;entryY=0;entryDx=0;entryDy=0;" edge="1" parent="1" source="B4jQxPsFh91deIZ0dAR_-8" target="9"><mxGeometry width="50" height="50" relative="1" as="geometry"><mxPoint x="390" y="320" as="sourcePoint"/><mxPoint x="440" y="270" as="targetPoint"/><Array as="points"><mxPoint x="240" y="320"/><mxPoint x="380" y="320"/></Array></mxGeometry></mxCell><mxCell id="19" value="" style="endArrow=classic;html=1;rounded=0;entryX=0.5;entryY=0;entryDx=0;entryDy=0;" edge="1" parent="1" target="10"><mxGeometry width="50" height="50" relative="1" as="geometry"><mxPoint x="240" y="280" as="sourcePoint"/><mxPoint x="440" y="270" as="targetPoint"/><Array as="points"><mxPoint x="240" y="320"/><mxPoint x="90" y="320"/></Array></mxGeometry></mxCell><mxCell id="20" value="" style="endArrow=classic;html=1;rounded=0;exitX=0.5;exitY=0.5;exitDx=0;exitDy=0;exitPerimeter=0;" edge="1" parent="1" source="MFGf02-coOZ1D1lEETmh-1"><mxGeometry width="50" height="50" relative="1" as="geometry"><mxPoint x="390" y="380" as="sourcePoint"/><mxPoint x="240" y="320" as="targetPoint"/></mxGeometry></mxCell><mxCell id="22" value="" style="endArrow=classic;html=1;rounded=0;exitX=1;exitY=0.5;exitDx=0;exitDy=0;entryX=0;entryY=0.5;entryDx=0;entryDy=0;" edge="1" parent="1" source="10" target="9"><mxGeometry relative="1" as="geometry"><mxPoint x="360" y="350" as="sourcePoint"/><mxPoint x="460" y="350" as="targetPoint"/></mxGeometry></mxCell><mxCell id="23" value="Après inscription" style="edgeLabel;resizable=0;html=1;align=center;verticalAlign=middle;" connectable="0" vertex="1" parent="22"><mxGeometry relative="1" as="geometry"/></mxCell><mxCell id="24" value="Employée" style="shape=umlActor;verticalLabelPosition=bottom;verticalAlign=top;html=1;outlineConnect=0;" vertex="1" parent="1"><mxGeometry x="610" y="535" width="40" height="70" as="geometry"/></mxCell><mxCell id="31" value="" style="endArrow=classic;html=1;rounded=0;entryX=1;entryY=0.5;entryDx=0;entryDy=0;exitX=0.5;exitY=0.5;exitDx=0;exitDy=0;exitPerimeter=0;" edge="1" parent="1" source="B4jQxPsFh91deIZ0dAR_-1" target="9"><mxGeometry width="50" height="50" relative="1" as="geometry"><mxPoint x="600" y="410" as="sourcePoint"/><mxPoint x="440" y="270" as="targetPoint"/></mxGeometry></mxCell><mxCell id="34" value="Gère des produits" style="ellipse;whiteSpace=wrap;html=1;" vertex="1" parent="1"><mxGeometry x="450" y="510" width="120" height="80" as="geometry"/></mxCell><mxCell id="39" value="" style="endArrow=classic;html=1;rounded=0;entryX=0;entryY=0.5;entryDx=0;entryDy=0;" edge="1" parent="1" source="9" target="34"><mxGeometry relative="1" as="geometry"><mxPoint x="360" y="510" as="sourcePoint"/><mxPoint x="460" y="510" as="targetPoint"/><Array as="points"><mxPoint x="380" y="550"/></Array></mxGeometry></mxCell><mxCell id="40" value="Pour Admin" style="edgeLabel;resizable=0;html=1;align=center;verticalAlign=middle;" connectable="0" vertex="1" parent="39"><mxGeometry relative="1" as="geometry"/></mxCell></root></mxGraphModel></diagram></mxfile>